<svg width="34" height="20" viewBox="0 0 34 20" fill="none" xmlns="http://www.w3.org/2000/svg">
<ellipse cx="9.5" cy="4" rx="4.5" ry="2" fill="black"/>
<ellipse cx="5.5" cy="7.5" rx="5.5" ry="4.5" fill="black"/>
<ellipse cx="28.5" cy="8.5" rx="5.5" ry="4.5" fill="black"/>
<ellipse cx="23.5" cy="6.5" rx="5.5" ry="4.5" fill="black"/>
<ellipse cx="15.5" cy="6.5" rx="5.5" ry="4.5" fill="black"/>
<ellipse cx="19.5" cy="4.5" rx="5.5" ry="4.5" fill="black"/>
<rect x="6" y="5" width="22" height="15" rx="2" fill="#D9B97A"/>
<rect x="8" y="7" width="4" height="4" fill="white"/>
<rect x="22" y="7" width="4" height="4" fill="white"/>
<rect x="10" y="7" width="2" height="3" fill="black"/>
<rect x="22" y="7" width="2" height="3" fill="black"/>
<rect x="12" y="15" width="10" height="3" fill="#DFDFDF"/>
<rect x="13" y="15" width="2" height="1" fill="#FAFF00"/>
<rect x="18" y="17" width="2" height="1" fill="#FAFF00"/>
<rect x="15" y="17" width="2" height="1" fill="#FAFF00"/>
<rect x="19" y="15" width="2" height="1" fill="#FAFF00"/>
<rect x="16" y="15" width="2" height="1" fill="#FAFF00"/>
</svg>
