<svg width="60" height="84" viewBox="0 0 60 84" fill="none" xmlns="http://www.w3.org/2000/svg">
<ellipse cx="22.5" cy="4" rx="4.5" ry="2" fill="black"/>
<ellipse cx="18.5" cy="7.5" rx="5.5" ry="4.5" fill="black"/>
<ellipse cx="41.5" cy="8.5" rx="5.5" ry="4.5" fill="black"/>
<ellipse cx="36.5" cy="6.5" rx="5.5" ry="4.5" fill="black"/>
<ellipse cx="28.5" cy="6.5" rx="5.5" ry="4.5" fill="black"/>
<ellipse cx="32.5" cy="4.5" rx="5.5" ry="4.5" fill="black"/>
<path d="M6 57H19V83C19 83.5523 18.5523 84 18 84H6V57Z" fill="#D9B97A"/>
<path d="M41 57H54V84H42C41.4477 84 41 83.5523 41 83V57Z" fill="#D9B97A"/>
<path d="M0 82C0 80.8954 0.895431 80 2 80H6V84H1C0.447715 84 0 83.5523 0 83V82Z" fill="#D9B97A"/>
<path d="M54 80H58C59.1046 80 60 80.8954 60 82V83C60 83.5523 59.5523 84 59 84H54V80Z" fill="#D9B97A"/>
<rect x="5" y="26" width="50" height="31" rx="1" fill="#FFF500"/>
<rect x="24" y="20" width="12" height="6" fill="#D9B97A"/>
<rect x="19" y="5" width="22" height="15" rx="2" fill="#D9B97A"/>
<rect x="21" y="7" width="4" height="4" fill="white"/>
<rect x="35" y="7" width="4" height="4" fill="white"/>
<rect x="23" y="7" width="2" height="3" fill="black"/>
<rect x="35" y="7" width="2" height="3" fill="black"/>
<rect x="25" y="15" width="10" height="3" fill="#DFDFDF"/>
<rect x="26" y="15" width="2" height="1" fill="#FAFF00"/>
<rect x="31" y="17" width="2" height="1" fill="#FAFF00"/>
<rect x="28" y="17" width="2" height="1" fill="#FAFF00"/>
<rect x="32" y="15" width="2" height="1" fill="#FAFF00"/>
<rect x="29" y="15" width="2" height="1" fill="#FAFF00"/>
<rect x="5" y="47" width="50" height="10" rx="1" fill="#CC0000"/>
<rect x="10" y="26" width="3" height="21" fill="#CC0000"/>
<rect x="47" y="26" width="3" height="21" fill="#CC0000"/>
<line x1="27.5" y1="26" x2="27.5" y2="47" stroke="black"/>
<line x1="29.5" y1="28" x2="29.5" y2="29" stroke="black"/>
<line x1="29.5" y1="32" x2="29.5" y2="33" stroke="black"/>
<line x1="29.5" y1="36" x2="29.5" y2="37" stroke="black"/>
<line x1="29.5" y1="44" x2="29.5" y2="45" stroke="black"/>
<line x1="29.5" y1="40" x2="29.5" y2="41" stroke="black"/>
</svg>
